<?xml version="1.0" encoding="UTF-8"?>
<svg xmlns="http://www.w3.org/2000/svg" xmlns:xlink="http://www.w3.org/1999/xlink" viewBox="0 0 48 48" width="48px" height="48px">
<g id="surface106283753">
<path style=" stroke:none;fill-rule:nonzero;fill:rgb(60.784316%,34.901962%,71.372551%);fill-opacity:1;" d="M 9.148438 45.839844 C 5.289062 45.839844 2.160156 42.710938 2.160156 38.851562 L 2.160156 9.148438 C 2.160156 5.289062 5.289062 2.160156 9.148438 2.160156 L 38.851562 2.160156 C 42.710938 2.160156 45.839844 5.289062 45.839844 9.148438 L 45.839844 38.851562 C 45.839844 42.710938 42.710938 45.839844 38.851562 45.839844 Z M 9.148438 45.839844 "/>
<path style=" stroke:none;fill-rule:nonzero;fill:rgb(100%,100%,100%);fill-opacity:1;" d="M 24 9 C 21.890625 9 15.464844 9 11.910156 12.242188 C 9.796875 14.351562 8.800781 17.394531 8.800781 21.800781 L 8.800781 24.199219 C 8.800781 28.605469 9.796875 31.648438 11.9375 33.78125 C 13.003906 34.753906 14.457031 35.53125 16.230469 36.066406 L 16.800781 36.238281 L 16.800781 40.5 C 16.800781 41 16.945312 41 16.992188 41 C 17.089844 41 17.25 40.96875 17.546875 40.703125 C 17.621094 40.632812 18.148438 40.0625 20.714844 37.183594 L 20.976562 36.894531 L 21.363281 36.917969 C 22.222656 36.972656 23.109375 37 24 37 C 26.109375 37 32.535156 37 36.089844 33.757812 C 38.203125 31.648438 39.199219 28.605469 39.199219 24.199219 L 39.199219 21.800781 C 39.199219 17.394531 38.203125 14.351562 36.0625 12.21875 C 32.535156 9 26.109375 9 24 9 Z M 24 9 "/>
<path style=" stroke:none;fill-rule:nonzero;fill:rgb(49.411765%,34.117648%,76.078433%);fill-opacity:1;" d="M 31.5625 28.082031 C 30.671875 27.335938 30.261719 27.109375 29.035156 26.371094 C 28.523438 26.066406 27.742188 25.800781 27.335938 25.800781 C 27.054688 25.800781 26.722656 26.011719 26.515625 26.21875 C 25.992188 26.742188 25.820312 27.398438 24.898438 27.398438 C 24 27.398438 22.429688 26.484375 21.300781 25.300781 C 20.117188 24.171875 19.199219 22.601562 19.199219 21.699219 C 19.199219 20.78125 19.84375 20.597656 20.371094 20.070312 C 20.574219 19.867188 20.800781 19.53125 20.800781 19.253906 C 20.800781 18.84375 20.535156 18.078125 20.230469 17.566406 C 19.492188 16.335938 19.265625 15.925781 18.515625 15.039062 C 18.261719 14.738281 17.972656 14.601562 17.671875 14.601562 C 17.160156 14.597656 16.488281 14.851562 16.035156 15.191406 C 15.351562 15.699219 14.636719 16.394531 14.445312 17.257812 C 14.421875 17.375 14.40625 17.496094 14.402344 17.613281 C 14.363281 18.511719 14.71875 19.425781 15.097656 20.199219 C 15.996094 22.023438 17.1875 23.789062 18.480469 25.363281 C 18.894531 25.867188 19.34375 26.335938 19.808594 26.789062 C 20.261719 27.253906 20.730469 27.707031 21.234375 28.121094 C 22.8125 29.414062 24.578125 30.601562 26.398438 31.5 C 27.167969 31.878906 28.070312 32.226562 28.960938 32.199219 C 29.085938 32.195312 29.214844 32.179688 29.339844 32.152344 C 30.207031 31.964844 30.898438 31.246094 31.410156 30.566406 C 31.746094 30.109375 32 29.441406 32 28.929688 C 32 28.625 31.863281 28.335938 31.5625 28.082031 Z M 32 24.199219 C 31.558594 24.199219 31.199219 23.839844 31.199219 23.398438 L 31.199219 22.601562 C 31.199219 18.628906 27.96875 15.398438 24 15.398438 C 23.558594 15.398438 23.199219 15.042969 23.199219 14.601562 C 23.199219 14.160156 23.558594 13.800781 24 13.800781 C 28.851562 13.800781 32.800781 17.746094 32.800781 22.601562 L 32.800781 23.398438 C 32.800781 23.839844 32.441406 24.199219 32 24.199219 Z M 27.085938 22.601562 C 26.730469 22.601562 26.40625 22.363281 26.3125 22 C 26.09375 21.160156 25.4375 20.503906 24.601562 20.289062 C 24.171875 20.175781 23.914062 19.742188 24.027344 19.3125 C 24.136719 18.886719 24.570312 18.628906 25 18.738281 C 26.398438 19.101562 27.496094 20.195312 27.859375 21.597656 C 27.972656 22.027344 27.714844 22.460938 27.289062 22.574219 C 27.21875 22.589844 27.152344 22.601562 27.085938 22.601562 Z M 27.085938 22.601562 "/>
<path style=" stroke:none;fill-rule:nonzero;fill:rgb(49.411765%,34.117648%,76.078433%);fill-opacity:1;" d="M 29.601562 23.398438 C 29.160156 23.398438 28.800781 23.042969 28.800781 22.601562 C 28.800781 20.050781 26.804688 17.945312 24.257812 17.8125 C 23.816406 17.789062 23.476562 17.410156 23.5 16.96875 C 23.523438 16.527344 23.90625 16.191406 24.339844 16.214844 C 27.738281 16.394531 30.398438 19.199219 30.398438 22.601562 C 30.398438 23.042969 30.042969 23.398438 29.601562 23.398438 Z M 29.601562 23.398438 "/>
<path style=" stroke:none;fill-rule:nonzero;fill:rgb(49.411765%,34.117648%,76.078433%);fill-opacity:1;" d="M 24 8.199219 C 20.398438 8.199219 14.789062 8.53125 11.371094 11.652344 C 8.957031 14.058594 8 17.433594 8 21.800781 C 8 22.160156 8 22.566406 8 23 C 8 23.433594 8 23.835938 8 24.199219 C 8 28.566406 8.957031 31.941406 11.371094 34.347656 C 12.671875 35.535156 14.296875 36.316406 16 36.832031 L 16 40.5 C 16 41.777344 16.839844 41.800781 16.992188 41.800781 L 17 41.800781 C 17.394531 41.796875 17.738281 41.605469 18.078125 41.300781 C 18.207031 41.1875 19.695312 39.527344 21.3125 37.714844 C 22.277344 37.777344 23.191406 37.800781 24 37.800781 C 27.597656 37.800781 33.207031 37.46875 36.625 34.347656 C 39.042969 31.941406 40 28.566406 40 24.199219 C 40 23.835938 40 23.433594 39.996094 23 C 40 22.5625 40 22.160156 40 21.800781 C 40 17.433594 39.042969 14.058594 36.625 11.652344 C 33.207031 8.53125 27.601562 8.199219 24 8.199219 Z M 37.601562 23.921875 L 37.601562 24.199219 C 37.601562 28.125 36.765625 30.796875 34.972656 32.609375 C 31.867188 35.398438 25.949219 35.398438 24 35.398438 C 23.40625 35.398438 22.441406 35.398438 21.304688 35.320312 C 20.988281 35.675781 17.601562 39.464844 17.601562 39.464844 L 17.601562 34.777344 C 15.917969 34.371094 14.253906 33.710938 13.027344 32.609375 C 11.234375 30.796875 10.398438 28.125 10.398438 24.199219 L 10.398438 23.921875 C 10.398438 23.640625 10.398438 23.335938 10.402344 22.980469 C 10.398438 22.664062 10.398438 22.359375 10.398438 22.078125 L 10.398438 21.800781 C 10.398438 17.875 11.234375 15.199219 13.027344 13.390625 C 16.132812 10.597656 22.050781 10.597656 24 10.597656 C 25.949219 10.597656 31.867188 10.597656 34.96875 13.390625 C 36.765625 15.199219 37.597656 17.875 37.597656 21.800781 L 37.597656 22.078125 C 37.597656 22.359375 37.601562 22.664062 37.597656 23.015625 C 37.601562 23.335938 37.601562 23.640625 37.601562 23.921875 Z M 37.601562 23.921875 "/>
</g>
</svg>
