<?xml version="1.0" encoding="UTF-8"?>
<svg xmlns="http://www.w3.org/2000/svg" xmlns:xlink="http://www.w3.org/1999/xlink" viewBox="0 0 50 50" width="50px" height="50px">
<g id="surface106374457">
<path style=" stroke:none;fill-rule:nonzero;fill:rgb(94.509804%,76.862746%,5.882353%);fill-opacity:1;" d="M 9.53125 47.75 C 5.507812 47.75 2.25 44.492188 2.25 40.46875 L 2.25 9.53125 C 2.25 5.507812 5.507812 2.25 9.53125 2.25 L 40.46875 2.25 C 44.492188 2.25 47.75 5.507812 47.75 9.53125 L 47.75 40.46875 C 47.75 44.492188 44.492188 47.75 40.46875 47.75 Z M 9.53125 47.75 "/>
<path style=" stroke:none;fill-rule:nonzero;fill:rgb(0%,0%,0%);fill-opacity:1;" d="M 42.515625 24.1875 C 42.519531 24.1875 42.519531 24.1875 42.523438 24.1875 C 42.746094 24.1875 42.960938 24.09375 43.109375 23.929688 C 43.265625 23.765625 43.339844 23.542969 43.320312 23.316406 C 42.515625 14.480469 35.523438 7.484375 26.6875 6.679688 C 26.464844 6.664062 26.238281 6.734375 26.070312 6.890625 C 25.90625 7.042969 25.8125 7.261719 25.816406 7.488281 C 25.953125 19.226562 27.503906 24.023438 42.515625 24.1875 Z M 42.515625 25.8125 C 27.503906 25.976562 25.957031 30.773438 25.816406 42.511719 C 25.8125 42.738281 25.90625 42.957031 26.074219 43.109375 C 26.222656 43.246094 26.414062 43.324219 26.617188 43.324219 C 26.640625 43.324219 26.664062 43.320312 26.6875 43.320312 C 35.523438 42.515625 42.519531 35.519531 43.320312 26.683594 C 43.339844 26.457031 43.265625 26.234375 43.109375 26.070312 C 42.957031 25.902344 42.742188 25.820312 42.515625 25.8125 Z M 23.257812 6.683594 C 14.453125 7.511719 7.480469 14.507812 6.679688 23.316406 C 6.660156 23.542969 6.734375 23.765625 6.890625 23.933594 C 7.042969 24.097656 7.253906 24.191406 7.476562 24.191406 C 7.480469 24.191406 7.484375 24.191406 7.488281 24.191406 C 22.449219 24.019531 23.992188 19.222656 24.132812 7.488281 C 24.136719 7.261719 24.042969 7.046875 23.875 6.890625 C 23.707031 6.738281 23.484375 6.664062 23.257812 6.683594 Z M 7.484375 25.808594 C 7.238281 25.78125 7.042969 25.902344 6.890625 26.066406 C 6.734375 26.234375 6.660156 26.457031 6.679688 26.683594 C 7.480469 35.492188 14.453125 42.488281 23.257812 43.316406 C 23.285156 43.316406 23.308594 43.320312 23.332031 43.320312 C 23.535156 43.320312 23.726562 43.242188 23.875 43.105469 C 24.042969 42.953125 24.136719 42.734375 24.132812 42.507812 C 23.992188 30.777344 22.449219 25.984375 7.484375 25.808594 Z M 7.484375 25.808594 "/>
</g>
</svg>
